<svg width="320" height="95" viewBox="0 0 320 95" fill="none" xmlns="http://www.w3.org/2000/svg">
<path d="M53.2592 31.349C53.2592 32.1113 53.2592 32.9689 53.2592 33.7312C53.3539 37.9238 53.2592 42.2116 53.5434 46.4042C53.7328 49.6439 54.7746 52.6931 57.2372 54.9799C58.4684 56.1234 59.6997 56.7904 60.9309 56.7904C68.0344 56.7904 82.9042 29.7292 85.8403 21.5346C86.2192 20.2959 85.4615 19.7242 84.5144 19.2477C84.2302 19.1525 84.0408 19.1525 83.9461 19.1525C83.1884 19.1525 83.0937 19.8195 82.9042 20.4865C82.5254 21.4393 82.2413 22.3922 81.7677 23.2497C77.0321 31.0632 72.3912 38.8766 67.4661 46.4995C66.6137 47.9288 61.3098 53.9318 59.605 53.9318C57.4266 53.9318 56.8583 45.3561 56.7636 43.8315C56.5742 40.0201 56.6689 36.2086 56.7636 32.3972C56.7636 29.8245 54.9641 27.6329 52.3121 27.6329C51.1756 27.6329 50.2284 28.2046 49.376 28.9669C46.9135 31.2538 44.5457 33.6359 42.3673 36.1133C37.7264 41.2588 33.3696 46.6901 28.7287 51.8355C24.8455 55.9328 20.6781 59.7442 16.5108 63.6509C15.8478 64.3179 14.9954 64.6991 13.8588 65.3661C13.9535 64.318 13.8588 63.7462 13.9535 63.1745C15.3742 58.4102 16.5108 53.6459 18.1209 48.8816C21.1517 40.3059 24.5613 31.8255 27.4974 23.2497C29.1075 18.676 30.1494 14.007 29.7705 9.14744C29.3917 3.71615 25.4138 0.762288 20.2993 0.762288C11.491 0.762288 3.34574 6.57472 -3 12.2919C-2.52644 13.1494 -2.14759 13.6259 -1.67402 13.6259C-1.38989 13.6259 -1.01104 13.4353 -0.537474 12.9589C4.95585 7.90872 14.4271 3.04915 22.0988 3.04915C25.1296 3.04915 26.5503 4.66901 26.645 8.00401C26.645 12.673 25.5085 17.4373 23.9931 21.8205C21.057 29.7292 17.8368 37.5426 14.9954 45.4513C13.1011 50.8826 11.6804 56.4092 10.165 61.9358C9.40734 64.6991 10.9227 66.7001 13.1011 68.1294C13.7641 68.5105 14.4271 68.7011 15.0901 68.7011C18.0262 68.7011 25.0349 62.2217 26.8344 60.2207C33.2749 53.1695 39.4312 45.7372 45.7769 38.4955C47.9553 35.9228 50.3231 33.5406 52.5962 31.0632C52.8804 31.1585 53.0698 31.2538 53.2592 31.349Z" fill="#F1EBEE"/>
<path d="M93.7015 40.4012C91.0495 43.6409 88.1134 45.5466 84.3249 46.2136C85.6509 43.2598 90.576 40.4012 93.7015 40.4012ZM122.21 44.8796C117.285 46.3089 112.455 48.0241 107.529 49.2628C102.794 50.3109 95.7851 52.4072 89.3447 52.4072C87.1663 52.4072 85.0826 52.2166 83.1884 51.6449C82.1465 51.3591 81.9571 50.5015 82.1465 49.3581C82.4307 48.2146 83.0937 48.2146 84.0408 48.2146C88.4923 48.2146 91.7125 46.2136 94.7433 43.1645C95.5957 42.2116 96.164 40.9729 95.3116 39.6389C94.5539 38.4955 93.6068 37.8285 92.4702 37.8285C88.6817 37.8285 83.9461 41.5446 81.673 44.4032C81.01 45.1655 80.0629 45.7372 79.9682 47.1665C79.5893 50.6921 80.8206 53.3601 84.2302 54.2177C85.6509 54.5988 87.3557 54.7894 89.1553 54.7894C96.3534 54.7894 105.825 52.0261 111.129 50.7874C115.201 49.8345 119.084 48.3099 123.062 46.9759C123.536 46.7853 123.82 46.0231 124.104 45.5466C123.536 45.2608 122.778 44.7843 122.21 44.8796Z" fill="#F1EBEE"/>
<path d="M129.502 48.5005C126.092 50.6921 122.872 53.0742 119.463 55.2658C118.515 55.9328 117.284 56.2187 116.242 56.5998C116.053 56.5045 115.863 56.3139 115.769 56.1234C116.526 54.8847 117.095 53.4554 118.042 52.5025C120.504 50.1204 123.062 47.9288 125.524 45.7372C126.187 45.1655 127.04 44.7844 127.703 44.6891C128.555 44.6891 129.786 44.8796 130.07 45.4513C130.639 46.4042 131.017 47.5476 129.502 48.5005ZM160.568 3.23972C155.169 17.8185 147.024 30.2056 136.89 41.7352C136.89 32.9689 153.654 5.4313 160.568 3.23972ZM175.248 45.6419C174.869 45.1655 174.49 44.8796 174.017 44.8796C173.733 44.8796 173.354 45.0702 172.975 45.3561C164.735 51.8355 155.359 55.2658 145.224 57.0762C144.088 57.2668 143.141 57.3621 142.194 57.3621C137.553 57.3621 135.753 54.7894 135.753 48.9769C135.753 48.1194 136.132 47.0712 136.795 46.4042C147.497 35.351 155.548 22.678 161.704 8.57573C162.273 7.24173 162.651 5.71715 163.03 4.28786C163.409 2.57272 162.462 1.42929 161.231 0.571714C160.662 0.190575 160.094 0 159.526 0C157.916 0 154.885 2.76329 153.843 3.90672C144.561 13.5306 134.143 31.4443 132.912 44.8796C132.912 45.2608 132.628 45.6419 132.438 46.2136C131.017 43.7362 129.313 42.3069 127.513 42.3069C126.755 42.3069 126.092 42.4975 125.335 42.8786C120.41 45.1655 116.526 48.6911 113.78 53.4554C112.927 54.9799 113.022 56.4092 114.253 57.8385C115.011 58.6961 115.863 59.0772 116.811 59.0772C118.421 59.0772 125.051 55.3611 126.661 54.4082C128.744 53.1695 130.733 51.4544 132.912 49.9298C134.048 55.5517 136.984 60.0301 143.33 60.0301C143.898 60.0301 144.467 60.0301 145.035 59.9348C155.359 58.4102 166.629 54.2176 174.68 47.6429C175.343 47.0712 176.101 46.4995 175.248 45.6419Z" fill="#F1EBEE"/>
<path d="M181.113 48.5005C177.703 50.6921 174.483 53.0742 171.073 55.2658C170.126 55.9328 168.895 56.2187 167.853 56.5998C167.664 56.5045 167.474 56.3139 167.38 56.1234C168.137 54.8847 168.706 53.4554 169.653 52.5025C172.115 50.1204 174.673 47.9288 177.135 45.7372C177.798 45.1655 178.65 44.7844 179.313 44.6891C180.166 44.6891 181.397 44.8796 181.681 45.4513C182.25 46.4042 182.628 47.5476 181.113 48.5005ZM212.179 3.23972C206.78 17.8185 198.635 30.2056 188.501 41.7352C188.501 32.9689 205.265 5.4313 212.179 3.23972ZM226.859 45.6419C226.48 45.1655 226.101 44.8796 225.628 44.8796C225.344 44.8796 224.965 45.0702 224.586 45.3561C216.346 51.8355 206.969 55.2658 196.835 57.0762C195.699 57.2668 194.752 57.3621 193.804 57.3621C189.164 57.3621 187.364 54.7894 187.364 48.9769C187.364 48.1194 187.743 47.0712 188.406 46.4042C199.108 35.351 207.159 22.678 213.315 8.57573C213.884 7.24173 214.262 5.71715 214.641 4.28786C215.02 2.57272 214.073 1.42929 212.842 0.571714C212.273 0.190575 211.705 0 211.137 0C209.527 0 206.496 2.76329 205.454 3.90672C196.172 13.5306 185.754 31.4443 184.523 44.8796C184.523 45.2608 184.238 45.6419 184.049 46.2136C182.628 43.7362 180.924 42.3069 179.124 42.3069C178.366 42.3069 177.703 42.4975 176.946 42.8786C172.021 45.1655 168.137 48.6911 165.391 53.4554C164.538 54.9799 164.633 56.4092 165.864 57.8385C166.622 58.6961 167.474 59.0772 168.422 59.0772C170.032 59.0772 176.661 55.3611 178.272 54.4082C180.355 53.1695 182.344 51.4544 184.523 49.9298C185.659 55.5517 188.595 60.0301 194.941 60.0301C195.509 60.0301 196.078 60.0301 196.646 59.9348C206.969 58.4102 218.24 54.2176 226.291 47.6429C226.954 47.0712 227.712 46.4995 226.859 45.6419Z" fill="#F1EBEE"/>
<path d="M249.867 45.0702C246.647 46.1184 229.883 51.4544 227.609 51.4544C226.946 51.4544 226.378 51.1685 226.568 50.0251C227.136 46.4042 228.178 42.9739 231.019 40.4012C230.356 39.4483 229.504 38.8766 228.557 38.8766C225.999 38.8766 223.916 45.5466 223.347 47.5476C222.4 50.9779 224.768 53.8365 228.178 53.8365C230.072 53.8365 232.156 53.3601 233.86 52.7884C239.259 51.0732 244.658 49.2628 250.056 47.4524C250.909 47.1665 251.761 46.6901 252.708 46.2136C252.14 45.2608 251.477 44.8796 250.814 44.8796C250.53 44.8796 250.151 44.9749 249.867 45.0702ZM231.871 36.5898C233.008 36.4945 234.618 34.8746 234.618 33.7312C234.618 32.2066 231.777 31.4443 230.545 31.4443C229.314 31.4443 229.03 32.2066 229.409 33.2548C229.409 35.2558 230.546 36.6851 231.871 36.5898Z" fill="#F1EBEE"/>
<path d="M288.47 45.8325C288.185 45.3561 287.617 44.8796 287.144 44.8796C286.575 44.9749 285.818 45.2608 285.344 45.6419C281.934 48.5958 275.02 52.1214 270.474 52.1214C269.338 52.1214 268.675 51.5496 268.296 50.3109C267.443 46.9759 266.212 42.3069 261.95 42.3069C260.908 42.3069 259.677 42.5928 258.446 43.2598C256.741 44.2126 255.131 45.2608 253.047 46.4995C253.805 44.8796 254.373 43.6409 254.941 42.4975C255.32 41.5446 255.131 40.7823 254.089 40.4012C253.71 40.2106 253.331 40.1153 253.047 40.1153C252.574 40.1153 252.195 40.4012 251.911 40.9729C250.206 44.3079 248.596 47.5476 246.891 50.8826C246.323 52.0261 246.607 52.8837 247.649 53.6459C248.217 54.0271 248.785 54.3129 249.259 54.3129C249.732 54.3129 250.206 54.0271 250.679 53.6459C252.195 52.1214 261.003 44.5938 262.708 44.5938C263.276 44.5938 263.655 45.0702 263.939 45.9278C264.886 49.9298 266.402 54.4082 271.327 54.4082C276.915 54.4082 283.829 50.7874 287.807 47.0712C288.185 46.6901 288.564 46.0231 288.47 45.8325Z" fill="#F1EBEE"/>
<path d="M287.324 51.1685C287.229 47.1665 293.48 42.5928 297.174 42.5928C293.954 45.6419 291.586 49.3581 287.324 51.1685ZM292.817 69.7492C289.976 77.0862 284.578 88.1394 277.285 92.0461C276.811 92.332 276.148 92.4273 275.485 92.4273C274.727 92.4273 274.064 92.332 273.496 92.0461C272.075 91.3791 272.265 89.664 272.549 88.2347C275.106 77.8485 286.851 68.1294 294.806 61.8405C294.996 61.7452 295.185 61.7452 295.848 61.4594C294.712 64.5085 293.859 67.1765 292.817 69.7492ZM303.709 52.4072C303.141 52.7884 302.573 53.1695 301.626 53.7412C302.194 51.9308 302.668 50.5015 303.046 49.1675C303.52 46.8806 304.088 44.5938 304.467 42.3069C304.657 40.8776 303.804 40.0201 302.668 39.4483C302.194 39.2578 301.815 39.1625 301.436 39.1625C300.868 39.1625 300.3 39.3531 299.826 39.9248C299.447 40.3059 299.069 40.6871 298.595 41.0682C296.701 40.1153 295.28 39.5436 293.954 39.5436C290.923 39.5436 286.661 43.5456 284.956 45.8325C282.778 48.5958 283.157 50.4062 285.714 52.6931C286.566 53.5507 287.608 53.9318 288.65 53.9318C289.503 53.9318 290.45 53.6459 291.397 52.8836C293.67 51.2638 295.659 49.1675 297.743 47.1665C298.69 46.2136 299.542 45.1655 300.489 44.1173C300.679 44.8796 300.584 45.4514 300.489 46.0231C299.542 49.0722 298.69 52.1214 297.648 55.0752C297.269 56.2187 296.417 57.4574 295.469 58.2197C288.84 63.4604 282.115 68.6058 276.622 75.0852C273.78 78.4203 271.412 82.0411 270.086 86.2337C269.139 89.2828 269.802 91.3791 272.265 93.3801C273.591 94.5236 275.106 95 276.527 95C278.989 95 282.589 92.8084 284.104 90.9027C293.102 79.5637 295.375 73.5607 299.826 59.5537C300.963 55.2658 314.317 48.8816 318.106 47.1665C318.769 46.9759 319.337 46.4995 320 46.1184C319.526 45.3561 318.958 44.9749 318.39 44.9749C318.011 44.9749 317.727 45.0702 317.348 45.2608L303.709 52.4072Z" fill="#F1EBEE"/>
</svg>
