<svg width="18" height="18" viewBox="0 0 18 18" fill="none" xmlns="http://www.w3.org/2000/svg">
<g clip-path="url(#clip0_10_128)">
<path fill-rule="evenodd" clip-rule="evenodd" d="M17.1895 8.63696C17.7915 7.78495 18.1189 7.05031 18.1189 6.00107C18.1189 3.78862 16.3288 2 14.1271 2C12.6521 2 11.4471 3.07733 10.667 4.00406C9.88691 4.93078 9.05945 6.79265 9.05945 6.79265C9.05945 6.79265 8.14671 4.93078 7.45189 4.00406C6.75707 3.07733 5.46677 2 3.99177 2C1.79009 2 0 3.78862 0 6.00107C0 7.09405 0.32745 7.78495 1.03717 8.74495C1.74689 9.70495 9.05945 16.78 9.05945 16.78C9.05945 16.78 16.5876 9.48898 17.1895 8.63696Z" fill="#E6578F"/>
<path d="M18.1189 6.00107C18.1189 7.05031 17.7915 7.78495 17.1895 8.63696C16.5876 9.48898 9.05945 16.78 9.05945 16.78C9.05945 16.78 1.74689 9.70495 1.03717 8.74495C0.32745 7.78495 0 7.09405 0 6.00107C0 3.78862 1.79009 2 3.99177 2C5.46677 2 6.75707 3.07733 7.45189 4.00406C8.14671 4.93078 9.05945 6.79265 9.05945 6.79265C9.05945 6.79265 9.88691 4.93078 10.667 4.00406C11.4471 3.07733 12.6521 2 14.1271 2C16.3288 2 18.1189 3.78862 18.1189 6.00107Z" fill="#E6578F"/>
</g>
<defs>
<clipPath id="clip0_10_128">
<rect width="18" height="18" fill="white"/>
</clipPath>
</defs>
</svg>
